<svg width="32" height="32" viewBox="0 0 32 32" fill="none" xmlns="http://www.w3.org/2000/svg">
<circle cx="16" cy="16" r="16" fill="#EE4713"/>
<path fill-rule="evenodd" clip-rule="evenodd" d="M9.17006 10.3404C8.90549 10.0783 8.4624 10.3227 8.54281 10.6862L11.2709 23.0218C11.3087 23.1928 11.4603 23.3145 11.6354 23.3145H20.9025C21.0776 23.3145 21.2292 23.1928 21.267 23.0218L23.9951 10.6862C24.0755 10.3227 23.6324 10.0783 23.3678 10.3404L20.4566 13.2239C20.3527 13.3268 20.1852 13.3268 20.0813 13.2239L16.5317 9.70806C16.3862 9.56395 16.1517 9.56395 16.0062 9.70806L12.4566 13.2239C12.3527 13.3268 12.1852 13.3268 12.0813 13.2239L9.17006 10.3404ZM13.8156 20.1145C13.6978 20.1145 13.6023 20.21 13.6023 20.3278V20.9678C13.6023 21.0857 13.6978 21.1812 13.8156 21.1812H18.7223C18.8401 21.1812 18.9356 21.0857 18.9356 20.9678V20.3278C18.9356 20.21 18.8401 20.1145 18.7223 20.1145H13.8156Z" fill="white"/>
</svg>
