<svg width="16" height="16" viewBox="0 0 16 16" fill="none" xmlns="http://www.w3.org/2000/svg">
<g opacity="0.5">
<path fill-rule="evenodd" clip-rule="evenodd" d="M8.17798 5.13325L8.23732 5.14498C8.29162 5.14884 8.34547 5.16681 8.39248 5.19979L9.8043 6.1904C10.0328 6.35075 10.1677 6.60439 10.1677 6.87399V8.24194C10.1677 8.39848 10.0338 8.52539 9.86877 8.52539C9.7037 8.52539 9.56988 8.39848 9.56988 8.24194V6.87399C9.56988 6.78412 9.52493 6.69958 9.44875 6.64613L8.73073 6.142L8.73126 8.24194C8.73088 8.3952 8.66582 8.54773 8.5376 8.65943L6.93326 10.057C6.8453 10.1337 6.78357 10.2335 6.75601 10.3437L6.17956 12.6488C6.10337 12.9534 5.7812 13.1418 5.45997 13.0696C5.13874 12.9973 4.94008 12.6918 5.01627 12.3871L5.59272 10.0821C5.6754 9.75146 5.8606 9.45191 6.12446 9.22205L6.93979 8.51109L6.93993 6.04245C6.93993 5.85306 7.03966 5.67618 7.20573 5.57101L7.7563 5.22231C7.88317 5.14195 8.03388 5.11255 8.17798 5.13325ZM7.73072 10.0688L8.60019 9.35424C8.64329 9.38103 8.68319 9.41345 8.71858 9.45123L8.76815 9.51191L10.6759 12.2015C10.8602 12.4613 10.7875 12.8136 10.5136 12.9883C10.2592 13.1506 9.92078 13.1028 9.72619 12.8871L9.68394 12.8344L7.77615 10.1447C7.75872 10.1202 7.7436 10.0948 7.73072 10.0688L8.60019 9.35424L7.73072 10.0688ZM6.67315 6.94537V7.69595L5.97796 8.26973C5.86722 8.36102 5.70576 8.36128 5.59519 8.27723L5.55629 8.24178C5.46003 8.13676 5.45975 7.98363 5.54837 7.87876L5.58577 7.84189L6.67315 6.94537ZM6.85011 2.80408C7.51039 2.80408 8.04566 3.3117 8.04566 3.93788C8.04566 4.56407 7.51039 5.07169 6.85011 5.07169C6.18982 5.07169 5.65455 4.56407 5.65455 3.93788C5.65455 3.3117 6.18982 2.80408 6.85011 2.80408Z" fill="black"/>
</g>
</svg>
