<svg width="64" height="64" viewBox="0 0 64 64" fill="none" xmlns="http://www.w3.org/2000/svg">
<path d="M53.0601 18.8244H46.6196V23.7441L53.0601 28.6638V18.8244Z" fill="white"/>
<path d="M55.2821 44.9108C54.6237 44.3677 52.8367 42.7766 49.7348 40.0118C45.0184 35.8093 35.2709 27.1206 33.5146 25.9394C33.0489 25.7352 32.5302 25.7795 32.3207 25.8981C29.5805 27.4488 12.2669 42.755 10.4943 44.5802L5 40.0186C6.17465 38.6593 24.7357 22.0823 28.6491 19.8675C31.0831 18.489 34.3499 18.458 36.9702 19.7898C38.3505 20.4898 42.1523 23.7329 54.6564 34.877C57.2093 37.1524 59.4144 39.1173 60 39.6019L55.2821 44.9108Z" fill="#F0C630"/>
</svg>
