<svg width="32" height="32" viewBox="0 0 32 32" fill="none" xmlns="http://www.w3.org/2000/svg">
<circle cx="16" cy="16" r="16" fill="#FC822A"/>
<line x1="18.168" y1="10.2684" x2="13.5434" y2="22.4757" stroke="white" stroke-width="2.1" stroke-linecap="round"/>
<path fill-rule="evenodd" clip-rule="evenodd" d="M10.4025 16.7611C12.2911 16.7611 13.8221 15.2301 13.8221 13.3415C13.8221 11.4529 12.2911 9.92188 10.4025 9.92188C8.51393 9.92188 6.98291 11.4529 6.98291 13.3415C6.98291 15.2301 8.51393 16.7611 10.4025 16.7611ZM10.3353 14.73C11.0741 14.73 11.673 14.1311 11.673 13.3924C11.673 12.6536 11.0741 12.0547 10.3353 12.0547C9.59656 12.0547 8.99766 12.6536 8.99766 13.3924C8.99766 14.1311 9.59656 14.73 10.3353 14.73Z" fill="white"/>
<path fill-rule="evenodd" clip-rule="evenodd" d="M21.5974 22.3147C23.486 22.3147 25.017 20.7837 25.017 18.8951C25.017 17.0065 23.486 15.4755 21.5974 15.4755C19.7088 15.4755 18.1777 17.0065 18.1777 18.8951C18.1777 20.7837 19.7088 22.3147 21.5974 22.3147ZM21.5301 20.2837C22.2689 20.2837 22.8678 19.6848 22.8678 18.946C22.8678 18.2072 22.2689 17.6083 21.5301 17.6083C20.7913 17.6083 20.1924 18.2072 20.1924 18.946C20.1924 19.6848 20.7913 20.2837 21.5301 20.2837Z" fill="white"/>
</svg>
