<svg width="32" height="32" viewBox="0 0 32 32" fill="none" xmlns="http://www.w3.org/2000/svg">
<circle cx="16" cy="16" r="16" fill="#774AA3"/>
<path fill-rule="evenodd" clip-rule="evenodd" d="M20.7564 7.70198C18.2243 8.23779 16.034 9.82418 14.7364 12.0718L12.8754 15.2952L10.107 16.037C10.0165 16.0612 9.9454 16.1311 9.91964 16.2212L9.43558 17.9134C9.39285 18.0627 9.48631 18.2168 9.6385 18.2479L11.0087 18.5283L16.5512 21.7283L17.4792 22.7748C17.5822 22.891 17.7624 22.8949 17.8704 22.7832L19.0938 21.5179C19.1589 21.4506 19.1839 21.354 19.1597 21.2635L18.4179 18.4952L20.2789 15.2718C21.5766 13.0242 21.8553 10.3342 21.0533 7.87341C21.0126 7.74862 20.8848 7.67481 20.7564 7.70198ZM17.2466 14.1239C17.7568 14.4184 18.4092 14.2436 18.7037 13.7335C18.9983 13.2233 18.8235 12.5709 18.3133 12.2764C17.8031 11.9818 17.1508 12.1566 16.8562 12.6668C16.5617 13.177 16.7365 13.8293 17.2466 14.1239Z" fill="white"/>
<path d="M11.1859 24.9604C12.4048 24.6706 13.4549 23.8913 14.0847 22.8005L14.4648 22.1421C14.5385 22.0146 14.4948 21.8515 14.3672 21.7779L12.0578 20.4445C11.9303 20.3709 11.7672 20.4146 11.6935 20.5421L11.3134 21.2005C10.6837 22.2913 10.5339 23.5904 10.8923 24.7909C10.9298 24.9167 11.0582 24.9908 11.1859 24.9604Z" fill="white"/>
</svg>
