<?xml version="1.0" encoding="utf-8"?><svg xmlns="http://www.w3.org/2000/svg" xmlns:xlink="http://www.w3.org/1999/xlink"><symbol fill="none" viewBox="0 0 16 10" id="arrow-down" xmlns="http://www.w3.org/2000/svg"><path d="M1 1l7 7 7-7" stroke="#000" stroke-width="2"/></symbol><symbol fill="none" viewBox="0 0 12 9" id="checked" xmlns="http://www.w3.org/2000/svg"><path d="M1.5 3.5L5 7l5.5-5.5" stroke="#fff" stroke-width="2"/></symbol><symbol fill="none" viewBox="0 0 12 9" id="checked-yellow" xmlns="http://www.w3.org/2000/svg"><path d="M1.5 3.5L5 7l5.5-5.5" stroke="#F0C630" stroke-width="2"/></symbol><symbol fill="none" viewBox="0 0 32 32" id="corona" xmlns="http://www.w3.org/2000/svg"><circle cx="16" cy="16" r="16" fill="#EE4713"/><path fill-rule="evenodd" clip-rule="evenodd" d="M9.17 10.34c-.265-.262-.708-.017-.627.346l2.728 12.336c.038.17.19.293.364.293h9.268a.373.373 0 00.364-.293l2.728-12.336c.08-.363-.363-.608-.627-.346l-2.911 2.884a.267.267 0 01-.376 0l-3.55-3.516a.373.373 0 00-.525 0l-3.55 3.516a.267.267 0 01-.375 0l-2.91-2.884zm4.646 9.774a.213.213 0 00-.214.214v.64c0 .118.096.213.214.213h4.906a.213.213 0 00.214-.213v-.64a.213.213 0 00-.214-.213h-4.906z" fill="#fff"/></symbol><symbol fill="none" viewBox="0 0 257 244" id="form-success" xmlns="http://www.w3.org/2000/svg"><circle cx="122" cy="122" r="120" stroke="#fff" stroke-width="4"/><path d="M60 110.5l54.5 54.5 141-141" stroke="#F0C630" stroke-width="4"/></symbol><symbol fill="none" viewBox="0 0 16 16" id="human" xmlns="http://www.w3.org/2000/svg"><path fill-rule="evenodd" clip-rule="evenodd" d="M8.178 5.133l.06.012a.308.308 0 01.154.055l1.412.99c.229.16.364.414.364.684v1.368a.292.292 0 01-.3.283.291.291 0 01-.298-.283V6.874a.279.279 0 00-.121-.228l-.718-.504v2.1a.554.554 0 01-.193.417l-1.605 1.398a.562.562 0 00-.177.287l-.576 2.305a.6.6 0 01-.72.42.566.566 0 01-.444-.682l.577-2.305c.082-.33.268-.63.531-.86l.816-.71v-2.47c0-.189.1-.366.266-.471l.55-.349a.624.624 0 01.422-.089zm-.447 4.936l.87-.715c.042.027.082.06.118.097l.05.06 1.907 2.69a.55.55 0 01-.162.787.62.62 0 01-.788-.1l-.042-.054-1.908-2.69a.559.559 0 01-.045-.075l.87-.715-.87.715zM6.673 6.945v.75l-.695.575a.312.312 0 01-.383.007l-.039-.035a.272.272 0 01-.008-.363l.038-.037 1.087-.897zm.177-4.14c.66 0 1.196.507 1.196 1.133S7.51 5.072 6.85 5.072c-.66 0-1.195-.508-1.195-1.134 0-.626.535-1.134 1.195-1.134z" fill="#000" opacity=".5"/></symbol><symbol fill="none" viewBox="0 0 64 64" id="logo" xmlns="http://www.w3.org/2000/svg"><path d="M53.06 18.824h-6.44v4.92l6.44 4.92v-9.84z" fill="#fff"/><path d="M55.282 44.91c-.658-.542-2.445-2.133-5.547-4.898-4.717-4.203-14.464-12.891-16.22-14.073-.466-.204-.985-.16-1.194-.04-2.74 1.55-20.054 16.856-21.827 18.681L5 40.02c1.175-1.36 19.736-17.937 23.65-20.151 2.433-1.379 5.7-1.41 8.32-.078 1.38.7 5.182 3.943 17.686 15.087 2.553 2.275 4.758 4.24 5.344 4.725l-4.718 5.309z" fill="#F0C630"/></symbol><symbol fill="none" viewBox="0 0 32 32" id="minus" xmlns="http://www.w3.org/2000/svg"><circle cx="16" cy="16" r="16" fill="#F0C630"/><path fill="#000" d="M10 17v-2h12v2z"/></symbol><symbol fill="none" viewBox="0 0 32 32" id="percent" xmlns="http://www.w3.org/2000/svg"><circle cx="16" cy="16" r="16" fill="#FC822A"/><path stroke="#fff" stroke-width="2.1" stroke-linecap="round" d="M18.168 10.268l-4.625 12.208"/><path fill-rule="evenodd" clip-rule="evenodd" d="M10.402 16.761a3.42 3.42 0 100-6.84 3.42 3.42 0 000 6.84zm-.067-2.031a1.338 1.338 0 100-2.675 1.338 1.338 0 000 2.675zm11.262 7.585a3.42 3.42 0 100-6.84 3.42 3.42 0 000 6.84zm-.067-2.031a1.338 1.338 0 100-2.676 1.338 1.338 0 000 2.676z" fill="#fff"/></symbol><symbol fill="none" viewBox="0 0 32 32" id="plus" xmlns="http://www.w3.org/2000/svg"><circle cx="16" cy="16" r="16" fill="#F0C630"/><path d="M17 22h-2V10h2v12z" fill="#000"/><path d="M10 17v-2h12v2H10z" fill="#000"/></symbol><symbol fill="none" viewBox="0 0 32 32" id="rocket" xmlns="http://www.w3.org/2000/svg"><circle cx="16" cy="16" r="16" fill="#774AA3"/><path fill-rule="evenodd" clip-rule="evenodd" d="M20.756 7.702a9.135 9.135 0 00-6.02 4.37l-1.86 3.223-2.769.742a.266.266 0 00-.187.184l-.484 1.692c-.043.15.05.304.203.335l1.37.28 5.542 3.2.928 1.047c.103.116.283.12.391.008l1.224-1.265a.267.267 0 00.066-.255l-.742-2.768 1.86-3.223a9.136 9.136 0 00.775-7.399.256.256 0 00-.297-.171zm-3.51 6.422a1.067 1.067 0 101.067-1.848 1.067 1.067 0 00-1.066 1.848z" fill="#fff"/><path d="M11.186 24.96a4.568 4.568 0 002.899-2.16l.38-.658a.266.266 0 00-.098-.364l-2.31-1.333a.267.267 0 00-.364.097l-.38.659a4.568 4.568 0 00-.42 3.59c.037.126.165.2.293.17z" fill="#fff"/></symbol><symbol fill="none" viewBox="0 0 16 16" id="select-icon" xmlns="http://www.w3.org/2000/svg"><path d="M8 10l4-5H4l4 5z" fill="#fff"/></symbol></svg>